# xmcd
#
# Track frame offsets: 
#        150
#        12788
#        27860
#        37469
#        54676
#        76425
#        94041
#        111413
#        125392
#        144807
#        162752
#        187704
#
# Disc length: 2837 seconds
#
# Revision: 0
# Processed by: cddbd v1.5.2PL0 Copyright (c) Steve Scherf et al.
# Submitted via: ExactAudioCopy v0.95a5
#
DISCID=940b130c
DTITLE=Prince - Lotusflow3r
DYEAR=2009
DGENRE=Funk
TTITLE0=From the Lotus
TTITLE1=Boom
TTITLE2=Crimson and Clover
TTITLE3=4ever
TTITLE4=Colonized Mind
TTITLE5=Feel Good, Feel better, Feel Wonderful
TTITLE6=Love like Jazz
TTITLE7=77 Bevrrly Park
TTITLE8=Wall of Berlin
TTITLE9=$
TTITLE10=Dreamer
TTITLE11=Back 2 the Lotus
EXTD=
EXTT0=
EXTT1=
EXTT2=
EXTT3=
EXTT4=
EXTT5=
EXTT6=
EXTT7=
EXTT8=
EXTT9=
EXTT10=
EXTT11=
PLAYORDER=
